HIERARCHY
ROOT Hips
{
	OFFSET 0.000000 0.000000 0.000000
	CHANNELS 6 Xposition Yposition Zposition Zrotation Yrotation Xrotation 
	JOINT LHipJoint
	{
		OFFSET 0.000000 0.000000 0.000000
		CHANNELS 3 Zrotation Yrotation Xrotation
		JOINT LeftUpLeg
		{
			OFFSET 1.363060 -1.794630 0.839290
			CHANNELS 3 Zrotation Yrotation Xrotation
			JOINT LeftLeg
			{
				OFFSET 2.448110 -6.726130 0.000000
				CHANNELS 3 Zrotation Yrotation Xrotation
				JOINT LeftFoot
				{
					OFFSET 2.562200 -7.039590 0.000000
					CHANNELS 3 Zrotation Yrotation Xrotation
					JOINT LeftToeBase
					{
						OFFSET 0.157640 -0.433110 2.322550
						CHANNELS 3 Zrotation Yrotation Xrotation
						End Site
						{
							OFFSET 0.000000 0.000000 0.000000
						}
					}
				}
			}
		}
	}
	JOINT RHipJoint
	{
		OFFSET 0.000000 0.000000 0.000000
		CHANNELS 3 Zrotation Yrotation Xrotation
		JOINT RightUpLeg
		{
			OFFSET -1.305520 -1.794630 0.839290
			CHANNELS 3 Zrotation Yrotation Xrotation
			JOINT RightLeg
			{
				OFFSET -2.542530 -6.985550 0.000000
				CHANNELS 3 Zrotation Yrotation Xrotation
				JOINT RightFoot
				{
					OFFSET -2.568260 -7.056230 0.000000
					CHANNELS 3 Zrotation Yrotation Xrotation
					JOINT RightToeBase
					{
						OFFSET -0.164730 -0.452590 2.363150
						CHANNELS 3 Zrotation Yrotation Xrotation
						End Site
						{
							OFFSET 0.000000 0.000000 0.000000
						}
					}
				}
			}
		}
	}
	JOINT LowerBack
	{
		OFFSET 0.000000 0.000000 0.000000
		CHANNELS 3 Zrotation Yrotation Xrotation
		JOINT Spine
		{
			OFFSET 0.028270 2.035590 -0.193380
			CHANNELS 3 Zrotation Yrotation Xrotation
			JOINT Spine1
			{
				OFFSET 0.056720 2.048850 -0.042750
				CHANNELS 3 Zrotation Yrotation Xrotation
				JOINT Neck
				{
					OFFSET 0.000000 0.000000 0.000000
					CHANNELS 3 Zrotation Yrotation Xrotation
					JOINT Neck1
					{
						OFFSET -0.054170 1.746240 0.172020
						CHANNELS 3 Zrotation Yrotation Xrotation
						JOINT Head
						{
							OFFSET 0.104070 1.761360 -0.123970
							CHANNELS 3 Zrotation Yrotation Xrotation
							End Site
							{
								OFFSET 0.000000 0.000000 0.000000
							}
						}
					}
				}
				JOINT LeftShoulder
				{
					OFFSET 0.000000 0.000000 0.000000
					CHANNELS 3 Zrotation Yrotation Xrotation
					JOINT LeftArm
					{
						OFFSET 3.362410 1.200890 -0.311210
						CHANNELS 3 Zrotation Yrotation Xrotation
						JOINT LeftForeArm
						{
							OFFSET 4.983000 -0.000000 -0.000000
							CHANNELS 3 Zrotation Yrotation Xrotation
							JOINT LeftHand
							{
								OFFSET 3.483560 -0.000000 -0.000000
								CHANNELS 3 Zrotation Yrotation Xrotation
								JOINT LeftFingerBase
								{
									OFFSET 0.000000 0.000000 0.000000
									CHANNELS 3 Zrotation Yrotation Xrotation
									JOINT LeftHandIndex1
									{
										OFFSET 0.715260 -0.000000 -0.000000
										CHANNELS 3 Zrotation Yrotation Xrotation
										End Site
										{
											OFFSET 0.000000 0.000000 0.000000
										}
									}
								}
								JOINT LThumb
								{
									OFFSET 0.000000 0.000000 0.000000
									CHANNELS 3 Zrotation Yrotation Xrotation
									End Site
									{
										OFFSET 0.000000 0.000000 0.000000
									}
								}
							}
						}
					}
				}
				JOINT RightShoulder
				{
					OFFSET 0.000000 0.000000 0.000000
					CHANNELS 3 Zrotation Yrotation Xrotation
					JOINT RightArm
					{
						OFFSET -3.136600 1.374050 -0.404650
						CHANNELS 3 Zrotation Yrotation Xrotation
						JOINT RightForeArm
						{
							OFFSET -5.241900 -0.000000 -0.000000
							CHANNELS 3 Zrotation Yrotation Xrotation
							JOINT RightHand
							{
								OFFSET -3.444170 -0.000000 -0.000000
								CHANNELS 3 Zrotation Yrotation Xrotation
								JOINT RightFingerBase
								{
									OFFSET 0.000000 0.000000 0.000000
									CHANNELS 3 Zrotation Yrotation Xrotation
									JOINT RightHandIndex1
									{
										OFFSET -0.622530 -0.000000 -0.000000
										CHANNELS 3 Zrotation Yrotation Xrotation
										End Site
										{
											OFFSET 0.000000 0.000000 0.000000
										}
									}
								}
								JOINT RThumb
								{
									OFFSET 0.000000 0.000000 0.000000
									CHANNELS 3 Zrotation Yrotation Xrotation
									End Site
									{
										OFFSET 0.000000 0.000000 0.000000
									}
								}
							}
						}
					}
				}
			}
		}
	}
}
MOTION
Frames: 5
Frame Time: 0.008333
-9.850179 15.462764 -0.830220 -71.597967 83.245327 -43.445220 -8.242926 -1.579502 -1.226424 -19.054471 -2.716543 -70.724591 -1.435983 3.747318 54.633786 2.754695 8.608469 -20.168159 -1.820800 0.000000 -5.459600 11.293606 -2.771515 -6.653196 14.386373 -16.749673 -26.251636 0.365244 -5.008455 62.498681 0.594711 9.588104 3.399197 1.584400 0.000000 -81.937300 -0.406176 0.437905 10.712836 -0.852334 0.818959 -1.048148 -5.708427 0.870055 -0.990102 9.266890 -8.055235 -8.335075 -1.860949 -0.099546 -0.645698 0.000000 0.000000 0.000000 -1.811215 16.620599 2.458596 -72.331436 22.564521 6.177074 -0.104108 -87.573527 0.002074 -0.769112 4.769265 -0.030517 -0.005124 0.114869 0.000000 0.000000 0.000000 0.000000 0.000000 0.000000 0.000000 5.419430 -0.611632 -0.370696 67.880918 6.493425 11.795820 179.761095 84.256052 179.964825 -5.476794 1.205749 -0.078015 0.108210 -0.411000 0.000000 0.000000 0.000000 0.000000 0.000000 0.000000 0.000000 
-9.635147 15.419369 -0.828957 -69.134583 82.797452 -41.377373 -8.296119 -1.677989 -1.373101 -18.446806 -2.413858 -70.424793 -1.217686 3.865815 56.790520 2.928438 9.397002 -21.353651 -2.189300 0.000000 -2.335600 11.432821 -2.647042 -6.562224 13.835851 -16.316273 -26.420113 -0.005346 -5.072176 64.486662 0.514340 9.959680 6.131699 2.148200 -0.000001 -80.346300 -0.485919 0.486459 10.767306 -0.885406 0.868109 -1.064996 -5.796378 0.918654 -1.089420 9.331934 -7.849168 -8.321616 -1.909955 -0.103390 -0.642292 0.000000 0.000000 0.000000 -2.019058 16.390619 2.476560 -72.180696 21.818656 6.068956 -0.121097 -87.217676 0.000995 -0.462756 5.016915 -0.018890 -0.010709 0.113720 0.000000 0.000000 0.000000 0.000000 0.000000 0.000000 0.000000 5.632294 -0.355319 -0.309403 68.273706 6.151642 11.585312 179.776432 84.809971 179.968046 -5.011500 1.382595 -0.079235 0.096101 -0.412241 0.000000 0.000000 0.000000 0.000000 0.000000 0.000000 0.000000 
-9.424319 15.379534 -0.827073 -66.466459 82.386035 -39.071187 -8.347826 -1.738136 -1.538684 -18.011245 -2.062971 -70.063510 -1.039156 3.983251 58.762452 3.086546 10.122913 -22.517274 -2.573000 0.000000 -0.267399 11.555360 -2.482199 -6.462262 13.288272 -15.747573 -26.778033 -0.363130 -5.129777 66.601751 0.395183 9.927289 8.431173 2.583900 0.000000 -77.993200 -0.613485 0.535205 10.829236 -0.929729 0.917160 -1.083034 -5.890822 0.966822 -1.200172 9.385719 -7.601908 -8.286983 -1.971345 -0.108387 -0.634380 0.000000 0.000000 0.000000 -2.252452 16.105535 2.496832 -71.937227 20.933373 6.037865 -0.141656 -86.784024 -0.000324 -0.104574 5.322421 -0.003460 -0.017283 0.112123 0.000000 0.000000 0.000000 0.000000 0.000000 0.000000 0.000000 5.892958 -0.071958 -0.243438 68.695268 5.805231 11.294993 179.796249 85.443977 179.970902 -4.593467 1.567343 -0.080055 0.084634 -0.413478 0.000000 0.000000 0.000000 0.000000 0.000000 0.000000 0.000000 
-9.217734 15.343982 -0.824883 -63.761847 82.022016 -36.694404 -8.401547 -1.765850 -1.718049 -17.738844 -1.679084 -69.630190 -0.900165 4.095110 60.512859 3.229620 10.776082 -23.662577 177.033100 -0.000001 -0.851800 11.656292 -2.288778 -6.359413 12.757612 -15.078072 -27.321177 -0.705290 -5.187903 68.815851 0.246512 9.398897 10.185021 2.792300 0.000000 -75.128600 -0.775712 0.577736 10.898203 -0.981986 0.959477 -1.100911 -5.989912 1.007953 -1.317625 9.423270 -7.323112 -8.229132 -2.044011 -0.114484 -0.621166 0.000000 0.000000 0.000000 -2.507045 15.763051 2.518048 -71.605479 19.910279 6.084332 -0.165843 -86.273204 -0.001905 0.305819 5.680715 0.016673 -0.024866 0.110209 0.000000 0.000000 0.000000 0.000000 0.000000 0.000000 0.000000 6.195681 0.220916 -0.175217 69.143461 5.463556 10.933793 179.821193 86.173462 179.973222 -4.250523 1.747479 -0.080775 0.074376 -0.414328 0.000000 0.000000 0.000000 0.000000 0.000000 0.000000 0.000000 
-9.015301 15.313155 -0.822797 -61.171328 81.714647 -34.399721 -8.459855 -1.769474 -1.905893 -17.608364 -1.278362 -69.117945 -0.798108 4.196877 62.025184 3.359327 11.354311 -24.793036 176.633300 0.000000 -1.170999 11.733436 -2.077775 -6.259042 12.255549 -14.344149 -28.039469 -1.032140 -5.252527 71.095987 0.073952 8.322942 11.322498 2.711700 -0.000001 -71.993700 -0.953732 0.607630 10.974116 -1.037513 0.988546 -1.116792 -6.091092 1.035613 -1.435662 9.440287 -7.023886 -8.148107 -2.125773 -0.121510 -0.602372 0.000000 0.000000 0.000000 -2.774279 15.367837 2.539181 -71.196591 18.751523 6.209114 -0.193711 -85.686542 -0.003769 0.765853 6.084278 0.042309 -0.033434 0.108155 0.000000 0.000000 0.000000 0.000000 0.000000 0.000000 0.000000 6.530257 0.505392 -0.107727 69.614847 5.135729 10.514075 179.851505 87.011143 179.974841 -4.009943 1.908711 -0.081895 0.065852 -0.414385 0.000000 0.000000 0.000000 0.000000 0.000000 0.000000 0.000000 
